<svg width="18" height="18" viewBox="0 0 18 18" fill="none" xmlns="http://www.w3.org/2000/svg">
<path fill-rule="evenodd" clip-rule="evenodd" d="M10.9863 0V2H1.9975V16H15.98V7H17.9775V17C17.9775 17.2652 17.8723 17.5196 17.685 17.7071C17.4977 17.8946 17.2437 18 16.9788 18H0.998752C0.733866 18 0.47983 17.8946 0.292527 17.7071C0.105225 17.5196 0 17.2652 0 17V1C0 0.734784 0.105225 0.48043 0.292527 0.292893C0.47983 0.105357 0.733866 0 0.998752 0H10.9863ZM16.9189 0.354L17.625 1.061C17.7186 1.15476 17.7712 1.28192 17.7712 1.4145C17.7712 1.54708 17.7186 1.67424 17.625 1.768L8.30362 11.1L6.31411 12.08C6.25792 12.1079 6.19443 12.1174 6.13255 12.1072C6.07068 12.0971 6.01356 12.0677 5.96922 12.0233C5.92489 11.9789 5.89558 11.9217 5.88542 11.8598C5.87526 11.7978 5.88477 11.7343 5.91261 11.678L6.89139 9.686L16.2127 0.353C16.3064 0.259264 16.4334 0.206607 16.5658 0.206607C16.6982 0.206607 16.8252 0.259264 16.9189 0.353V0.354Z" fill="black"/>
</svg>
